<svg xmlns="http://www.w3.org/2000/svg" viewBox="0 0 180 40"><defs><style>.a{fill:#145cc6;}.b,.c{fill:#fff;}.b{fill-rule:evenodd;}</style></defs><title>lg-blue</title><rect class="a" width="180" height="40" rx="2"/><path class="b" d="M10,10H30v7.69H10Z"/><path class="b" d="M10,27.37H30V30H10Z"/><path class="b" d="M10,20.37H30v3.85H10Z"/><path class="c" d="M48.1,19.63a4.26,4.26,0,0,1-1.18,3.25A4.73,4.73,0,0,1,43.53,24h-2.4V15.43h2.65A4.37,4.37,0,0,1,47,16.54,4.08,4.08,0,0,1,48.1,19.63Zm-1.48.05c0-2.05-1-3.07-2.88-3.07H42.53v6.21h1C45.59,22.82,46.62,21.78,46.62,19.68Zm6,4.44a3.18,3.18,0,0,1-2.37-.88,3.35,3.35,0,0,1-.85-2.43,3.68,3.68,0,0,1,.79-2.5,2.76,2.76,0,0,1,2.18-.91,2.65,2.65,0,0,1,2,.78,3,3,0,0,1,.75,2.15v.74H50.83a2.13,2.13,0,0,0,.51,1.45,1.76,1.76,0,0,0,1.35.51,5.17,5.17,0,0,0,1.07-.11,5.11,5.11,0,0,0,1.06-.36v1.12a4.22,4.22,0,0,1-1,.34A6.72,6.72,0,0,1,52.63,24.12Zm-.25-5.67a1.39,1.39,0,0,0-1.06.41,2,2,0,0,0-.47,1.21h2.94a1.74,1.74,0,0,0-.38-1.21A1.31,1.31,0,0,0,52.38,18.45ZM60,24.12a2.27,2.27,0,0,1-1.91-.89H58c.05.55.08.88.08,1v2.65H56.71V17.52h1.11c0,.12.1.41.2.87h.07a2.15,2.15,0,0,1,1.93-1,2.26,2.26,0,0,1,1.89.88,4,4,0,0,1,.68,2.47,4,4,0,0,1-.69,2.48A2.28,2.28,0,0,1,60,24.12Zm-.34-5.59a1.46,1.46,0,0,0-1.2.48,2.5,2.5,0,0,0-.37,1.53v.21a3,3,0,0,0,.37,1.71,1.39,1.39,0,0,0,1.23.53,1.25,1.25,0,0,0,1.1-.58,3,3,0,0,0,.39-1.67,2.87,2.87,0,0,0-.39-1.65A1.26,1.26,0,0,0,59.66,18.53ZM65.56,24H64.19V14.88h1.37Zm7.73-3.25a3.52,3.52,0,0,1-.82,2.48,2.92,2.92,0,0,1-2.26.89,3.13,3.13,0,0,1-1.61-.41,2.72,2.72,0,0,1-1.07-1.18,4,4,0,0,1-.38-1.78A3.51,3.51,0,0,1,68,18.29a2.94,2.94,0,0,1,2.28-.89,2.88,2.88,0,0,1,2.23.91A3.51,3.51,0,0,1,73.29,20.75Zm-4.72,0c0,1.49.55,2.24,1.66,2.24s1.64-.75,1.64-2.24-.55-2.22-1.65-2.22A1.42,1.42,0,0,0,69,19.1,2.92,2.92,0,0,0,68.57,20.75Zm5.32-3.23h1.5l1.32,3.67a7.31,7.31,0,0,1,.4,1.48h0a6.43,6.43,0,0,1,.2-.78c.09-.31.59-1.77,1.49-4.37h1.48l-2.77,7.34a2.62,2.62,0,0,1-2.52,2,3.8,3.8,0,0,1-.89-.1V25.69a3.11,3.11,0,0,0,.71.07,1.44,1.44,0,0,0,1.4-1.15l.24-.61Zm16.28,3.23a3.56,3.56,0,0,1-.81,2.48,2.93,2.93,0,0,1-2.27.89,3.12,3.12,0,0,1-1.6-.41,2.75,2.75,0,0,1-1.08-1.18A4,4,0,0,1,84,20.75a3.51,3.51,0,0,1,.81-2.46,2.94,2.94,0,0,1,2.28-.89,2.86,2.86,0,0,1,2.22.91A3.46,3.46,0,0,1,90.17,20.75Zm-4.71,0c0,1.49.55,2.24,1.66,2.24s1.64-.75,1.64-2.24-.55-2.22-1.66-2.22a1.44,1.44,0,0,0-1.26.57A3,3,0,0,0,85.46,20.75Zm12,3.25H96.08V20a1.74,1.74,0,0,0-.3-1.12,1.15,1.15,0,0,0-1-.37,1.54,1.54,0,0,0-1.28.51,2.86,2.86,0,0,0-.4,1.73V24H91.76V17.52h1.08l.19.85h.07a2,2,0,0,1,.84-.72,2.84,2.84,0,0,1,1.19-.25,2.08,2.08,0,0,1,2.33,2.38Zm10.85-6a2.51,2.51,0,0,1-.87,2.06,3.87,3.87,0,0,1-2.51.71H104V24h-1.4V15.43h2.47a3.7,3.7,0,0,1,2.4.66A2.33,2.33,0,0,1,108.31,18ZM104,19.62h.75a2.66,2.66,0,0,0,1.58-.38,1.35,1.35,0,0,0,.5-1.17,1.33,1.33,0,0,0-.45-1.1,2.23,2.23,0,0,0-1.4-.36h-1ZM111.26,24h-1.38V14.88h1.38Zm6,0-.28-.9H117a2.74,2.74,0,0,1-.94.81,3,3,0,0,1-1.22.21,2,2,0,0,1-1.49-.52,1.92,1.92,0,0,1-.54-1.46,1.7,1.7,0,0,1,.75-1.51,4.35,4.35,0,0,1,2.27-.56l1.11,0v-.35a1.26,1.26,0,0,0-.29-.92,1.16,1.16,0,0,0-.9-.31,3.31,3.31,0,0,0-.95.14,8.48,8.48,0,0,0-.88.35l-.44-1a4.61,4.61,0,0,1,1.15-.41,5.09,5.09,0,0,1,1.18-.15,2.8,2.8,0,0,1,1.87.54,2.12,2.12,0,0,1,.63,1.69V24Zm-2.06-.94a1.75,1.75,0,0,0,1.21-.41,1.54,1.54,0,0,0,.45-1.18v-.56l-.83,0a2.77,2.77,0,0,0-1.42.33,1,1,0,0,0-.44.88.9.9,0,0,0,.26.68A1.14,1.14,0,0,0,115.23,23.06Zm7.38-.06a3.46,3.46,0,0,0,1-.15v1a2.83,2.83,0,0,1-.59.17,4.42,4.42,0,0,1-.74.07c-1.31,0-2-.69-2-2.07V18.56h-.88V18l1-.5.46-1.37h.85v1.44h1.85v1H121.7V22a1,1,0,0,0,.25.74A.92.92,0,0,0,122.61,23Zm5.56-4.44h-1.59V24H125.2V18.56h-1.06v-.64l1.06-.42v-.43a2.32,2.32,0,0,1,.54-1.69,2.17,2.17,0,0,1,1.65-.56,4.42,4.42,0,0,1,1.43.24l-.37,1a3.12,3.12,0,0,0-1-.16.83.83,0,0,0-.69.29,1.47,1.47,0,0,0-.21.87v.42h1.59ZM135,20.75a3.56,3.56,0,0,1-.81,2.48,2.94,2.94,0,0,1-2.27.89,3.16,3.16,0,0,1-1.61-.41,2.79,2.79,0,0,1-1.07-1.18,4,4,0,0,1-.37-1.78,3.51,3.51,0,0,1,.81-2.46A2.91,2.91,0,0,1,132,17.4a2.87,2.87,0,0,1,2.22.91A3.46,3.46,0,0,1,135,20.75Zm-4.72,0c0,1.49.56,2.24,1.66,2.24s1.64-.75,1.64-2.24-.55-2.22-1.65-2.22a1.42,1.42,0,0,0-1.26.57A2.92,2.92,0,0,0,130.3,20.75Zm9.6-3.35a3.23,3.23,0,0,1,.68.06l-.13,1.28a3.08,3.08,0,0,0-.61-.07,1.76,1.76,0,0,0-1.34.54,2,2,0,0,0-.51,1.4V24h-1.38V17.52h1.08l.18,1.14h.07a2.57,2.57,0,0,1,.84-.92A2,2,0,0,1,139.9,17.4Zm7.35,6.6h-1.38V20a1.83,1.83,0,0,0-.28-1.1,1,1,0,0,0-.88-.37,1.34,1.34,0,0,0-1.17.52,3,3,0,0,0-.37,1.72V24h-1.38V17.52h1.08l.19.85h.07a1.82,1.82,0,0,1,.78-.72A2.64,2.64,0,0,1,145,17.4a2,2,0,0,1,2,1h.1a2,2,0,0,1,.8-.75,2.59,2.59,0,0,1,1.2-.27,2.18,2.18,0,0,1,1.69.59,2.6,2.6,0,0,1,.53,1.79V24H150V20a1.77,1.77,0,0,0-.28-1.1,1,1,0,0,0-.88-.37,1.38,1.38,0,0,0-1.18.5,2.57,2.57,0,0,0-.37,1.54Zm5.81-.73a.89.89,0,0,1,.22-.66.86.86,0,0,1,.64-.23.82.82,0,0,1,.65.24.9.9,0,0,1,.23.65,1,1,0,0,1-.23.66.84.84,0,0,1-.65.24.83.83,0,0,1-.64-.24A.92.92,0,0,1,153.06,23.27Zm7.86-1.12a1.7,1.7,0,0,1-.69,1.46,3.29,3.29,0,0,1-2,.51,4.53,4.53,0,0,1-2.08-.4V22.54a5.1,5.1,0,0,0,2.12.52c.85,0,1.28-.25,1.28-.77a.64.64,0,0,0-.14-.41,2,2,0,0,0-.47-.34,7.6,7.6,0,0,0-.89-.39,4.11,4.11,0,0,1-1.52-.87,1.62,1.62,0,0,1-.39-1.13,1.46,1.46,0,0,1,.66-1.28,3.18,3.18,0,0,1,1.83-.47,5.15,5.15,0,0,1,2.16.47l-.44,1a4.79,4.79,0,0,0-1.77-.43c-.72,0-1.08.21-1.08.62a.64.64,0,0,0,.28.52,6.46,6.46,0,0,0,1.24.58,5.86,5.86,0,0,1,1.17.56,1.63,1.63,0,0,1,.71,1.4Zm7.2,1.85h-1.39V20a1.74,1.74,0,0,0-.3-1.12,1.15,1.15,0,0,0-1-.37,1.51,1.51,0,0,0-1.27.52,2.83,2.83,0,0,0-.41,1.73V24h-1.38V14.88h1.38V17.2a10.2,10.2,0,0,1-.07,1.19h.09a1.89,1.89,0,0,1,.78-.73,2.52,2.52,0,0,1,1.17-.26,2.09,2.09,0,0,1,2.36,2.38Z"/></svg>